<mxGraphModel><root><mxCell id="0" /><mxCell id="1" parent="0" /><mxCell id="reader0" value="GadgetIsmrmrdAcquisitionMessageReader&#10;(gadgetron_mricore)" style="fillColor=#d5e8d4;fontColor=#000000;" parent="1" vertex="1"><mxGeometry y="0" width="800" height="40" as="geometry" /></mxCell><mxCell id="reader1" value="GadgetIsmrmrdWaveformMessageReader&#10;(gadgetron_mricore)" style="fillColor=#d5e8d4;fontColor=#000000;" parent="1" vertex="1"><mxGeometry y="60" width="800" height="40" as="geometry" /></mxCell><mxCell id="gadget0" value="NoiseAdjustGadget&#10;(gadgetron_mricore)" parent="1" vertex="1" style="fillColor=#fff2cc;fontColor=#000000;align=center;"><mxGeometry y="120" height="40" width="800" as="geometry" /></mxCell><mxCell id="arrow1" style="edgeStyle=orthogonalEdgeStyle;rounded=0;orthogonalLoop=1;jettySize=auto;html=1;exitX=0.5;exitY=1;exitDx=0;exitDy=0;entryX=0.5;entryY=0;entryDx=0;entryDy=0;" parent="1" source="gadget0" target="gadget1" edge="1"><mxGeometry relative="1" as="geometry" /></mxCell><mxCell id="gadget1" value="AsymmetricEchoAdjustROGadget&#10;(gadgetron_mricore)" parent="1" vertex="1" style="fillColor=#fff2cc;fontColor=#000000;align=center;"><mxGeometry y="180" height="40" width="800" as="geometry" /></mxCell><mxCell id="arrow2" style="edgeStyle=orthogonalEdgeStyle;rounded=0;orthogonalLoop=1;jettySize=auto;html=1;exitX=0.5;exitY=1;exitDx=0;exitDy=0;entryX=0.5;entryY=0;entryDx=0;entryDy=0;" parent="1" source="gadget1" target="gadget2" edge="1"><mxGeometry relative="1" as="geometry" /></mxCell><mxCell id="gadget2" value="RemoveROOversamplingGadget&#10;(gadgetron_mricore)" parent="1" vertex="1" style="fillColor=#fff2cc;fontColor=#000000;align=center;"><mxGeometry y="240" height="40" width="800" as="geometry" /></mxCell><mxCell id="arrow3" style="edgeStyle=orthogonalEdgeStyle;rounded=0;orthogonalLoop=1;jettySize=auto;html=1;exitX=0.5;exitY=1;exitDx=0;exitDy=0;entryX=0.5;entryY=0;entryDx=0;entryDy=0;" parent="1" source="gadget2" target="gadget3" edge="1"><mxGeometry relative="1" as="geometry" /></mxCell><mxCell id="gadget3" value="AcquisitionAccumulateTriggerGadget&#10;(gadgetron_mricore)" parent="1" vertex="1" style="fillColor=#fff2cc;fontColor=#000000;align=left;spacingLeft=5;"><mxGeometry y="300" height="40" width="800" as="geometry" /></mxCell><mxCell id="gadget3property0" value="trigger_dimension: None" style="fillColor=#ffffff;fontColor=#000000;align=left;spacingLeft=5;" parent="gadget3" vertex="1"><mxGeometry x="400.0" y="0" width="400.0" height="20" as="geometry" /></mxCell><mxCell id="gadget3property1" value="sorting_dimension: None" style="fillColor=#ffffff;fontColor=#000000;align=left;spacingLeft=5;" parent="gadget3" vertex="1"><mxGeometry x="400.0" y="20" width="400.0" height="20" as="geometry" /></mxCell><mxCell id="arrow4" style="edgeStyle=orthogonalEdgeStyle;rounded=0;orthogonalLoop=1;jettySize=auto;html=1;exitX=0.5;exitY=1;exitDx=0;exitDy=0;entryX=0.5;entryY=0;entryDx=0;entryDy=0;" parent="1" source="gadget3" target="gadget4" edge="1"><mxGeometry relative="1" as="geometry" /></mxCell><mxCell id="gadget4" value="BucketToBufferGadget&#10;(gadgetron_mricore)" parent="1" vertex="1" style="fillColor=#fff2cc;fontColor=#000000;align=left;spacingLeft=5;"><mxGeometry y="360" height="100" width="800" as="geometry" /></mxCell><mxCell id="gadget4property0" value="N_dimension: contrast" style="fillColor=#ffffff;fontColor=#000000;align=left;spacingLeft=5;" parent="gadget4" vertex="1"><mxGeometry x="400.0" y="0" width="400.0" height="20" as="geometry" /></mxCell><mxCell id="gadget4property1" value="S_dimension: average" style="fillColor=#ffffff;fontColor=#000000;align=left;spacingLeft=5;" parent="gadget4" vertex="1"><mxGeometry x="400.0" y="20" width="400.0" height="20" as="geometry" /></mxCell><mxCell id="gadget4property2" value="split_slices: false" style="fillColor=#ffffff;fontColor=#000000;align=left;spacingLeft=5;" parent="gadget4" vertex="1"><mxGeometry x="400.0" y="40" width="400.0" height="20" as="geometry" /></mxCell><mxCell id="gadget4property3" value="ignore_segment: true" style="fillColor=#ffffff;fontColor=#000000;align=left;spacingLeft=5;" parent="gadget4" vertex="1"><mxGeometry x="400.0" y="60" width="400.0" height="20" as="geometry" /></mxCell><mxCell id="gadget4property4" value="verbose: true" style="fillColor=#ffffff;fontColor=#000000;align=left;spacingLeft=5;" parent="gadget4" vertex="1"><mxGeometry x="400.0" y="80" width="400.0" height="20" as="geometry" /></mxCell><mxCell id="arrow5" style="edgeStyle=orthogonalEdgeStyle;rounded=0;orthogonalLoop=1;jettySize=auto;html=1;exitX=0.5;exitY=1;exitDx=0;exitDy=0;entryX=0.5;entryY=0;entryDx=0;entryDy=0;" parent="1" source="gadget4" target="gadget5" edge="1"><mxGeometry relative="1" as="geometry" /></mxCell><mxCell id="gadget5" value="GenericReconCartesianReferencePrepGadget&#10;(gadgetron_mricore)" parent="1" vertex="1" style="fillColor=#fff2cc;fontColor=#000000;align=left;spacingLeft=5;"><mxGeometry y="480" height="120" width="800" as="geometry" /></mxCell><mxCell id="gadget5property0" value="debug_folder: None" style="fillColor=#ffffff;fontColor=#000000;align=left;spacingLeft=5;" parent="gadget5" vertex="1"><mxGeometry x="400.0" y="0" width="400.0" height="20" as="geometry" /></mxCell><mxCell id="gadget5property1" value="perform_timing: true" style="fillColor=#ffffff;fontColor=#000000;align=left;spacingLeft=5;" parent="gadget5" vertex="1"><mxGeometry x="400.0" y="20" width="400.0" height="20" as="geometry" /></mxCell><mxCell id="gadget5property2" value="verbose: true" style="fillColor=#ffffff;fontColor=#000000;align=left;spacingLeft=5;" parent="gadget5" vertex="1"><mxGeometry x="400.0" y="40" width="400.0" height="20" as="geometry" /></mxCell><mxCell id="gadget5property3" value="average_all_ref_N: true" style="fillColor=#ffffff;fontColor=#000000;align=left;spacingLeft=5;" parent="gadget5" vertex="1"><mxGeometry x="400.0" y="60" width="400.0" height="20" as="geometry" /></mxCell><mxCell id="gadget5property4" value="average_all_ref_S: true" style="fillColor=#ffffff;fontColor=#000000;align=left;spacingLeft=5;" parent="gadget5" vertex="1"><mxGeometry x="400.0" y="80" width="400.0" height="20" as="geometry" /></mxCell><mxCell id="gadget5property5" value="prepare_ref_always: true" style="fillColor=#ffffff;fontColor=#000000;align=left;spacingLeft=5;" parent="gadget5" vertex="1"><mxGeometry x="400.0" y="100" width="400.0" height="20" as="geometry" /></mxCell><mxCell id="arrow6" style="edgeStyle=orthogonalEdgeStyle;rounded=0;orthogonalLoop=1;jettySize=auto;html=1;exitX=0.5;exitY=1;exitDx=0;exitDy=0;entryX=0.5;entryY=0;entryDx=0;entryDy=0;" parent="1" source="gadget5" target="gadget6" edge="1"><mxGeometry relative="1" as="geometry" /></mxCell><mxCell id="gadget6" value="GenericReconEigenChannelGadget&#10;(gadgetron_mricore)" parent="1" vertex="1" style="fillColor=#fff2cc;fontColor=#000000;align=left;spacingLeft=5;"><mxGeometry y="620" height="160" width="800" as="geometry" /></mxCell><mxCell id="gadget6property0" value="debug_folder: None" style="fillColor=#ffffff;fontColor=#000000;align=left;spacingLeft=5;" parent="gadget6" vertex="1"><mxGeometry x="400.0" y="0" width="400.0" height="20" as="geometry" /></mxCell><mxCell id="gadget6property1" value="perform_timing: true" style="fillColor=#ffffff;fontColor=#000000;align=left;spacingLeft=5;" parent="gadget6" vertex="1"><mxGeometry x="400.0" y="20" width="400.0" height="20" as="geometry" /></mxCell><mxCell id="gadget6property2" value="verbose: true" style="fillColor=#ffffff;fontColor=#000000;align=left;spacingLeft=5;" parent="gadget6" vertex="1"><mxGeometry x="400.0" y="40" width="400.0" height="20" as="geometry" /></mxCell><mxCell id="gadget6property3" value="average_all_ref_N: true" style="fillColor=#ffffff;fontColor=#000000;align=left;spacingLeft=5;" parent="gadget6" vertex="1"><mxGeometry x="400.0" y="60" width="400.0" height="20" as="geometry" /></mxCell><mxCell id="gadget6property4" value="average_all_ref_S: true" style="fillColor=#ffffff;fontColor=#000000;align=left;spacingLeft=5;" parent="gadget6" vertex="1"><mxGeometry x="400.0" y="80" width="400.0" height="20" as="geometry" /></mxCell><mxCell id="gadget6property5" value="upstream_coil_compression: true" style="fillColor=#ffffff;fontColor=#000000;align=left;spacingLeft=5;" parent="gadget6" vertex="1"><mxGeometry x="400.0" y="100" width="400.0" height="20" as="geometry" /></mxCell><mxCell id="gadget6property6" value="upstream_coil_compression_thres: 0.001" style="fillColor=#ffffff;fontColor=#000000;align=left;spacingLeft=5;" parent="gadget6" vertex="1"><mxGeometry x="400.0" y="120" width="400.0" height="20" as="geometry" /></mxCell><mxCell id="gadget6property7" value="upstream_coil_compression_num_modesKept: 0" style="fillColor=#ffffff;fontColor=#000000;align=left;spacingLeft=5;" parent="gadget6" vertex="1"><mxGeometry x="400.0" y="140" width="400.0" height="20" as="geometry" /></mxCell><mxCell id="arrow7" style="edgeStyle=orthogonalEdgeStyle;rounded=0;orthogonalLoop=1;jettySize=auto;html=1;exitX=0.5;exitY=1;exitDx=0;exitDy=0;entryX=0.5;entryY=0;entryDx=0;entryDy=0;" parent="1" source="gadget6" target="gadget7" edge="1"><mxGeometry relative="1" as="geometry" /></mxCell><mxCell id="gadget7" value="GenericReconCartesianSpiritGadget&#10;(gadgetron_mricore)" parent="1" vertex="1" style="fillColor=#fff2cc;fontColor=#000000;align=left;spacingLeft=5;"><mxGeometry y="800" height="120" width="800" as="geometry" /></mxCell><mxCell id="gadget7property0" value="image_series: 0" style="fillColor=#ffffff;fontColor=#000000;align=left;spacingLeft=5;" parent="gadget7" vertex="1"><mxGeometry x="400.0" y="0" width="400.0" height="20" as="geometry" /></mxCell><mxCell id="gadget7property1" value="coil_map_algorithm: Inati" style="fillColor=#ffffff;fontColor=#000000;align=left;spacingLeft=5;" parent="gadget7" vertex="1"><mxGeometry x="400.0" y="20" width="400.0" height="20" as="geometry" /></mxCell><mxCell id="gadget7property2" value="spirit_print_iter: true" style="fillColor=#ffffff;fontColor=#000000;align=left;spacingLeft=5;" parent="gadget7" vertex="1"><mxGeometry x="400.0" y="40" width="400.0" height="20" as="geometry" /></mxCell><mxCell id="gadget7property3" value="debug_folder: None" style="fillColor=#ffffff;fontColor=#000000;align=left;spacingLeft=5;" parent="gadget7" vertex="1"><mxGeometry x="400.0" y="60" width="400.0" height="20" as="geometry" /></mxCell><mxCell id="gadget7property4" value="perform_timing: true" style="fillColor=#ffffff;fontColor=#000000;align=left;spacingLeft=5;" parent="gadget7" vertex="1"><mxGeometry x="400.0" y="80" width="400.0" height="20" as="geometry" /></mxCell><mxCell id="gadget7property5" value="verbose: true" style="fillColor=#ffffff;fontColor=#000000;align=left;spacingLeft=5;" parent="gadget7" vertex="1"><mxGeometry x="400.0" y="100" width="400.0" height="20" as="geometry" /></mxCell><mxCell id="arrow8" style="edgeStyle=orthogonalEdgeStyle;rounded=0;orthogonalLoop=1;jettySize=auto;html=1;exitX=0.5;exitY=1;exitDx=0;exitDy=0;entryX=0.5;entryY=0;entryDx=0;entryDy=0;" parent="1" source="gadget7" target="gadget8" edge="1"><mxGeometry relative="1" as="geometry" /></mxCell><mxCell id="gadget8" value="GenericReconPartialFourierHandlingFilterGadget&#10;(gadgetron_mricore)" parent="1" vertex="1" style="fillColor=#fff2cc;fontColor=#000000;align=left;spacingLeft=5;"><mxGeometry y="940" height="160" width="800" as="geometry" /></mxCell><mxCell id="gadget8property0" value="debug_folder: None" style="fillColor=#ffffff;fontColor=#000000;align=left;spacingLeft=5;" parent="gadget8" vertex="1"><mxGeometry x="400.0" y="0" width="400.0" height="20" as="geometry" /></mxCell><mxCell id="gadget8property1" value="perform_timing: false" style="fillColor=#ffffff;fontColor=#000000;align=left;spacingLeft=5;" parent="gadget8" vertex="1"><mxGeometry x="400.0" y="20" width="400.0" height="20" as="geometry" /></mxCell><mxCell id="gadget8property2" value="verbose: false" style="fillColor=#ffffff;fontColor=#000000;align=left;spacingLeft=5;" parent="gadget8" vertex="1"><mxGeometry x="400.0" y="40" width="400.0" height="20" as="geometry" /></mxCell><mxCell id="gadget8property3" value="skip_processing_meta_field: Skip_processing_after_recon" style="fillColor=#ffffff;fontColor=#000000;align=left;spacingLeft=5;" parent="gadget8" vertex="1"><mxGeometry x="400.0" y="60" width="400.0" height="20" as="geometry" /></mxCell><mxCell id="gadget8property4" value="partial_fourier_filter_RO_width: 0.15" style="fillColor=#ffffff;fontColor=#000000;align=left;spacingLeft=5;" parent="gadget8" vertex="1"><mxGeometry x="400.0" y="80" width="400.0" height="20" as="geometry" /></mxCell><mxCell id="gadget8property5" value="partial_fourier_filter_E1_width: 0.15" style="fillColor=#ffffff;fontColor=#000000;align=left;spacingLeft=5;" parent="gadget8" vertex="1"><mxGeometry x="400.0" y="100" width="400.0" height="20" as="geometry" /></mxCell><mxCell id="gadget8property6" value="partial_fourier_filter_E2_width: 0.15" style="fillColor=#ffffff;fontColor=#000000;align=left;spacingLeft=5;" parent="gadget8" vertex="1"><mxGeometry x="400.0" y="120" width="400.0" height="20" as="geometry" /></mxCell><mxCell id="gadget8property7" value="partial_fourier_filter_densityComp: false" style="fillColor=#ffffff;fontColor=#000000;align=left;spacingLeft=5;" parent="gadget8" vertex="1"><mxGeometry x="400.0" y="140" width="400.0" height="20" as="geometry" /></mxCell><mxCell id="arrow9" style="edgeStyle=orthogonalEdgeStyle;rounded=0;orthogonalLoop=1;jettySize=auto;html=1;exitX=0.5;exitY=1;exitDx=0;exitDy=0;entryX=0.5;entryY=0;entryDx=0;entryDy=0;" parent="1" source="gadget8" target="gadget9" edge="1"><mxGeometry relative="1" as="geometry" /></mxCell><mxCell id="gadget9" value="GenericReconKSpaceFilteringGadget&#10;(gadgetron_mricore)" parent="1" vertex="1" style="fillColor=#fff2cc;fontColor=#000000;align=left;spacingLeft=5;"><mxGeometry y="1120" height="260" width="800" as="geometry" /></mxCell><mxCell id="gadget9property0" value="debug_folder: None" style="fillColor=#ffffff;fontColor=#000000;align=left;spacingLeft=5;" parent="gadget9" vertex="1"><mxGeometry x="400.0" y="0" width="400.0" height="20" as="geometry" /></mxCell><mxCell id="gadget9property1" value="perform_timing: false" style="fillColor=#ffffff;fontColor=#000000;align=left;spacingLeft=5;" parent="gadget9" vertex="1"><mxGeometry x="400.0" y="20" width="400.0" height="20" as="geometry" /></mxCell><mxCell id="gadget9property2" value="verbose: false" style="fillColor=#ffffff;fontColor=#000000;align=left;spacingLeft=5;" parent="gadget9" vertex="1"><mxGeometry x="400.0" y="40" width="400.0" height="20" as="geometry" /></mxCell><mxCell id="gadget9property3" value="skip_processing_meta_field: Skip_processing_after_recon" style="fillColor=#ffffff;fontColor=#000000;align=left;spacingLeft=5;" parent="gadget9" vertex="1"><mxGeometry x="400.0" y="60" width="400.0" height="20" as="geometry" /></mxCell><mxCell id="gadget9property4" value="filterRO: Gaussian" style="fillColor=#ffffff;fontColor=#000000;align=left;spacingLeft=5;" parent="gadget9" vertex="1"><mxGeometry x="400.0" y="80" width="400.0" height="20" as="geometry" /></mxCell><mxCell id="gadget9property5" value="filterRO_sigma: 1.0" style="fillColor=#ffffff;fontColor=#000000;align=left;spacingLeft=5;" parent="gadget9" vertex="1"><mxGeometry x="400.0" y="100" width="400.0" height="20" as="geometry" /></mxCell><mxCell id="gadget9property6" value="filterRO_width: 0.15" style="fillColor=#ffffff;fontColor=#000000;align=left;spacingLeft=5;" parent="gadget9" vertex="1"><mxGeometry x="400.0" y="120" width="400.0" height="20" as="geometry" /></mxCell><mxCell id="gadget9property7" value="filterE1: Gaussian" style="fillColor=#ffffff;fontColor=#000000;align=left;spacingLeft=5;" parent="gadget9" vertex="1"><mxGeometry x="400.0" y="140" width="400.0" height="20" as="geometry" /></mxCell><mxCell id="gadget9property8" value="filterE1_sigma: 1.0" style="fillColor=#ffffff;fontColor=#000000;align=left;spacingLeft=5;" parent="gadget9" vertex="1"><mxGeometry x="400.0" y="160" width="400.0" height="20" as="geometry" /></mxCell><mxCell id="gadget9property9" value="filterE1_width: 0.15" style="fillColor=#ffffff;fontColor=#000000;align=left;spacingLeft=5;" parent="gadget9" vertex="1"><mxGeometry x="400.0" y="180" width="400.0" height="20" as="geometry" /></mxCell><mxCell id="gadget9property10" value="filterE2: Gaussian" style="fillColor=#ffffff;fontColor=#000000;align=left;spacingLeft=5;" parent="gadget9" vertex="1"><mxGeometry x="400.0" y="200" width="400.0" height="20" as="geometry" /></mxCell><mxCell id="gadget9property11" value="filterE2_sigma: 1.0" style="fillColor=#ffffff;fontColor=#000000;align=left;spacingLeft=5;" parent="gadget9" vertex="1"><mxGeometry x="400.0" y="220" width="400.0" height="20" as="geometry" /></mxCell><mxCell id="gadget9property12" value="filterE2_width: 0.15" style="fillColor=#ffffff;fontColor=#000000;align=left;spacingLeft=5;" parent="gadget9" vertex="1"><mxGeometry x="400.0" y="240" width="400.0" height="20" as="geometry" /></mxCell><mxCell id="arrow10" style="edgeStyle=orthogonalEdgeStyle;rounded=0;orthogonalLoop=1;jettySize=auto;html=1;exitX=0.5;exitY=1;exitDx=0;exitDy=0;entryX=0.5;entryY=0;entryDx=0;entryDy=0;" parent="1" source="gadget9" target="gadget10" edge="1"><mxGeometry relative="1" as="geometry" /></mxCell><mxCell id="gadget10" value="GenericReconFieldOfViewAdjustmentGadget&#10;(gadgetron_mricore)" parent="1" vertex="1" style="fillColor=#fff2cc;fontColor=#000000;align=left;spacingLeft=5;"><mxGeometry y="1400" height="60" width="800" as="geometry" /></mxCell><mxCell id="gadget10property0" value="debug_folder: None" style="fillColor=#ffffff;fontColor=#000000;align=left;spacingLeft=5;" parent="gadget10" vertex="1"><mxGeometry x="400.0" y="0" width="400.0" height="20" as="geometry" /></mxCell><mxCell id="gadget10property1" value="perform_timing: false" style="fillColor=#ffffff;fontColor=#000000;align=left;spacingLeft=5;" parent="gadget10" vertex="1"><mxGeometry x="400.0" y="20" width="400.0" height="20" as="geometry" /></mxCell><mxCell id="gadget10property2" value="verbose: false" style="fillColor=#ffffff;fontColor=#000000;align=left;spacingLeft=5;" parent="gadget10" vertex="1"><mxGeometry x="400.0" y="40" width="400.0" height="20" as="geometry" /></mxCell><mxCell id="arrow11" style="edgeStyle=orthogonalEdgeStyle;rounded=0;orthogonalLoop=1;jettySize=auto;html=1;exitX=0.5;exitY=1;exitDx=0;exitDy=0;entryX=0.5;entryY=0;entryDx=0;entryDy=0;" parent="1" source="gadget10" target="gadget11" edge="1"><mxGeometry relative="1" as="geometry" /></mxCell><mxCell id="gadget11" value="GenericReconImageArrayScalingGadget&#10;(gadgetron_mricore)" parent="1" vertex="1" style="fillColor=#fff2cc;fontColor=#000000;align=left;spacingLeft=5;"><mxGeometry y="1480" height="160" width="800" as="geometry" /></mxCell><mxCell id="gadget11property0" value="perform_timing: false" style="fillColor=#ffffff;fontColor=#000000;align=left;spacingLeft=5;" parent="gadget11" vertex="1"><mxGeometry x="400.0" y="0" width="400.0" height="20" as="geometry" /></mxCell><mxCell id="gadget11property1" value="verbose: false" style="fillColor=#ffffff;fontColor=#000000;align=left;spacingLeft=5;" parent="gadget11" vertex="1"><mxGeometry x="400.0" y="20" width="400.0" height="20" as="geometry" /></mxCell><mxCell id="gadget11property2" value="min_intensity_value: 64" style="fillColor=#ffffff;fontColor=#000000;align=left;spacingLeft=5;" parent="gadget11" vertex="1"><mxGeometry x="400.0" y="40" width="400.0" height="20" as="geometry" /></mxCell><mxCell id="gadget11property3" value="max_intensity_value: 4095" style="fillColor=#ffffff;fontColor=#000000;align=left;spacingLeft=5;" parent="gadget11" vertex="1"><mxGeometry x="400.0" y="60" width="400.0" height="20" as="geometry" /></mxCell><mxCell id="gadget11property4" value="scalingFactor: 10.0" style="fillColor=#ffffff;fontColor=#000000;align=left;spacingLeft=5;" parent="gadget11" vertex="1"><mxGeometry x="400.0" y="80" width="400.0" height="20" as="geometry" /></mxCell><mxCell id="gadget11property5" value="use_constant_scalingFactor: true" style="fillColor=#ffffff;fontColor=#000000;align=left;spacingLeft=5;" parent="gadget11" vertex="1"><mxGeometry x="400.0" y="100" width="400.0" height="20" as="geometry" /></mxCell><mxCell id="gadget11property6" value="auto_scaling_only_once: true" style="fillColor=#ffffff;fontColor=#000000;align=left;spacingLeft=5;" parent="gadget11" vertex="1"><mxGeometry x="400.0" y="120" width="400.0" height="20" as="geometry" /></mxCell><mxCell id="gadget11property7" value="scalingFactor_dedicated: 100.0" style="fillColor=#ffffff;fontColor=#000000;align=left;spacingLeft=5;" parent="gadget11" vertex="1"><mxGeometry x="400.0" y="140" width="400.0" height="20" as="geometry" /></mxCell><mxCell id="arrow12" style="edgeStyle=orthogonalEdgeStyle;rounded=0;orthogonalLoop=1;jettySize=auto;html=1;exitX=0.5;exitY=1;exitDx=0;exitDy=0;entryX=0.5;entryY=0;entryDx=0;entryDy=0;" parent="1" source="gadget11" target="gadget12" edge="1"><mxGeometry relative="1" as="geometry" /></mxCell><mxCell id="gadget12" value="ImageArraySplitGadget&#10;(gadgetron_mricore)" parent="1" vertex="1" style="fillColor=#fff2cc;fontColor=#000000;align=center;"><mxGeometry y="1660" height="40" width="800" as="geometry" /></mxCell><mxCell id="arrow13" style="edgeStyle=orthogonalEdgeStyle;rounded=0;orthogonalLoop=1;jettySize=auto;html=1;exitX=0.5;exitY=1;exitDx=0;exitDy=0;entryX=0.5;entryY=0;entryDx=0;entryDy=0;" parent="1" source="gadget12" target="gadget13" edge="1"><mxGeometry relative="1" as="geometry" /></mxCell><mxCell id="gadget13" value="ComplexToFloatGadget&#10;(gadgetron_mricore)" parent="1" vertex="1" style="fillColor=#fff2cc;fontColor=#000000;align=center;"><mxGeometry y="1720" height="40" width="800" as="geometry" /></mxCell><mxCell id="arrow14" style="edgeStyle=orthogonalEdgeStyle;rounded=0;orthogonalLoop=1;jettySize=auto;html=1;exitX=0.5;exitY=1;exitDx=0;exitDy=0;entryX=0.5;entryY=0;entryDx=0;entryDy=0;" parent="1" source="gadget13" target="gadget14" edge="1"><mxGeometry relative="1" as="geometry" /></mxCell><mxCell id="gadget14" value="FloatToUShortGadget&#10;(gadgetron_mricore)" parent="1" vertex="1" style="fillColor=#fff2cc;fontColor=#000000;align=left;spacingLeft=5;"><mxGeometry y="1780" height="60" width="800" as="geometry" /></mxCell><mxCell id="gadget14property0" value="max_intensity: 32767" style="fillColor=#ffffff;fontColor=#000000;align=left;spacingLeft=5;" parent="gadget14" vertex="1"><mxGeometry x="400.0" y="0" width="400.0" height="20" as="geometry" /></mxCell><mxCell id="gadget14property1" value="min_intensity: 0" style="fillColor=#ffffff;fontColor=#000000;align=left;spacingLeft=5;" parent="gadget14" vertex="1"><mxGeometry x="400.0" y="20" width="400.0" height="20" as="geometry" /></mxCell><mxCell id="gadget14property2" value="intensity_offset: 0" style="fillColor=#ffffff;fontColor=#000000;align=left;spacingLeft=5;" parent="gadget14" vertex="1"><mxGeometry x="400.0" y="40" width="400.0" height="20" as="geometry" /></mxCell><mxCell id="arrow15" style="edgeStyle=orthogonalEdgeStyle;rounded=0;orthogonalLoop=1;jettySize=auto;html=1;exitX=0.5;exitY=1;exitDx=0;exitDy=0;entryX=0.5;entryY=0;entryDx=0;entryDy=0;" parent="1" source="gadget14" target="gadget15" edge="1"><mxGeometry relative="1" as="geometry" /></mxCell><mxCell id="gadget15" value="ImageFinishGadget&#10;(gadgetron_mricore)" parent="1" vertex="1" style="fillColor=#fff2cc;fontColor=#000000;align=center;"><mxGeometry y="1860" height="40" width="800" as="geometry" /></mxCell><mxCell id="writer0" value="MRIImageWriter&#10;(gadgetron_mricore)" style="fillColor=#f8cecc;fontColor=#000000;" parent="1" vertex="1"><mxGeometry y="1920" width="800" height="40" as="geometry" /></mxCell></root></mxGraphModel>